<svg xmlns="http://www.w3.org/2000/svg" width="24" height="24" fill="none"><path fill="#fff" fill-rule="evenodd" d="M12.895 16.655c3.34.571 6.391-1.476 6.949-4.748l1.59-9.336c-3.34-.57-6.391 1.477-6.948 4.749l-.06.354 4.625 1.872-4.932 1.996-.71 2.101-.514 3.012Zm-.5-.016-.066.387c3.792.909 7.376-1.349 8.005-5.042L22 2.2c-3.776-.905-7.346 1.33-7.997 4.997l-1.652-5.012-.103.294.054-.318c-3.71-.786-7.212 1.491-7.823 5.086L2 21.845c3.71.786 7.212-1.491 7.823-5.086l.806-4.745 1.665 4.923.101-.298ZM11.317 5.134l-.848 2.416-4.932 1.996 4.707 1.905-.89 5.235c-.542 3.194-3.535 5.262-6.812 4.793L4.947 7.32c.542-3.194 3.536-5.262 6.812-4.793l-.442 2.606Z" clip-rule="evenodd"/></svg>