<svg xmlns="http://www.w3.org/2000/svg" width="24" height="24" fill="none"><path fill="#fff" d="M20.372 4.655a14.368 14.368 0 0 1-.07-.057c-.28-.23-.624-.513-1.212-.588-.588-.08-1.187.317-1.599.59l-.021.014c-.242.16-.609.501-.936.806a9.723 9.723 0 0 1-.577.513c-.13.098-.34.193-.63.324-.435.197-1.05.475-1.843.965-1.327.819-6.533 4.257-6.533 4.257l1.355.017-6.04 3.2h.603l-.869.68s.768.208 1.411-.21v.192s7.193-2.915 8.582-2.16l-.847.255c.074 0 1.44.093 1.44.093.016.137.045.27.087.4C13.437 12.21 15.142 11 17.122 11h.018c.931-.631 1.21-1.129 1.397-1.537.144-.313.329-.814.497-1.268.108-.294.21-.569.288-.758.248-.622.553-.953.807-1.15.254-.198 1.383-.633 1.383-.633s-.864-.772-1.14-.999Z"/><path fill="#fff" fill-rule="evenodd" d="M17.122 11.556c-2.395 0-4.336 1.99-4.336 4.444 0 2.455 1.941 4.445 4.336 4.445 2.395 0 4.336-1.99 4.336-4.445s-1.941-4.444-4.336-4.444ZM12.244 16c0-2.761 2.184-5 4.878-5S22 13.239 22 16s-2.184 5-4.878 5-4.878-2.239-4.878-5Z" clip-rule="evenodd"/><path fill="#fff" d="M17.184 18.5c-.382 0-.72-.06-1.012-.18a1.643 1.643 0 0 1-.692-.524 1.412 1.412 0 0 1-.26-.836h1.004c.01.226.097.417.26.573.169.152.4.228.692.228.253 0 .454-.055.603-.166a.548.548 0 0 0 .223-.455.567.567 0 0 0-.2-.463c-.13-.11-.303-.2-.522-.27l-.699-.22c-.402-.13-.71-.295-.922-.498-.209-.202-.313-.472-.313-.808-.005-.285.067-.53.216-.732.154-.207.362-.366.625-.476.263-.116.565-.173.907-.173.348 0 .652.057.915.173.268.115.476.276.625.483.154.207.236.454.246.739h-1.02a.622.622 0 0 0-.215-.449c-.134-.133-.323-.2-.566-.2a.86.86 0 0 0-.528.145.488.488 0 0 0-.208.428c0 .161.055.29.164.387.109.092.258.17.446.235.188.064.404.133.647.207.258.083.494.18.707.29a1.4 1.4 0 0 1 .513.442c.13.18.194.412.194.697 0 .254-.07.488-.209.705a1.486 1.486 0 0 1-.617.525c-.273.129-.608.193-1.004.193Z"/></svg>