<svg xmlns="http://www.w3.org/2000/svg" width="21" height="20" fill="none">
  <g clip-path="url(#a)">
    <path fill="currentColor"
      d="M18.182 5.818a8.393 8.393 0 0 0 2.05-2.206 6.525 6.525 0 0 1-2.343.662 4.06 4.06 0 0 0 1.777-2.327c-.742.495-1.608.843-2.598 1.043a4.205 4.205 0 0 0-1.386-.982 3.966 3.966 0 0 0-3.125-.04 3.74 3.74 0 0 0-1.29.842c-.403.4-.722.869-.957 1.404a4.14 4.14 0 0 0-.215 2.607A11.525 11.525 0 0 1 5.39 5.537a11.559 11.559 0 0 1-3.77-3.108 4.22 4.22 0 0 0-.566 2.106c0 .695.156 1.357.468 1.985A4.008 4.008 0 0 0 2.89 8.044a3.513 3.513 0 0 1-1.856-.521v.06c0 .655.137 1.277.41 1.865a4.372 4.372 0 0 0 1.172 1.464 4.013 4.013 0 0 0 1.7.763c-.352.12-.717.18-1.094.18-.183 0-.443-.027-.782-.08.3.856.801 1.558 1.504 2.106a3.779 3.779 0 0 0 2.344.802 7.609 7.609 0 0 1-2.383 1.364 8.107 8.107 0 0 1-3.672.401 11.554 11.554 0 0 0 2.989 1.404 11.34 11.34 0 0 0 3.281.481c2.396 0 4.48-.588 6.25-1.765 1.77-1.19 3.118-2.707 4.043-4.552.937-1.859 1.406-3.75 1.406-5.676 0-.241-.006-.415-.02-.522Z" />
  </g>
  <defs>
    <clipPath id="a">
      <path fill="#fff" d="M.5 0h20v20H.5z" />
    </clipPath>
  </defs>
</svg>