<svg width="18" height="18" viewBox="0 0 18 18" fill="none" xmlns="http://www.w3.org/2000/svg">
<path d="M13.7627 1.22917C14.0876 1.57765 14.25 1.99148 14.25 2.47064C14.25 2.93529 14.0876 3.34186 13.7627 3.69034L7.98101 9.35322L13.7627 15.0379C14.0876 15.3573 14.25 15.7639 14.25 16.2576C14.25 16.7367 14.0876 17.136 13.7627 17.4555C13.4082 17.8185 12.9873 18 12.5 18C12.0274 18 11.6139 17.8185 11.2595 17.4555L4.23734 10.5947C3.91245 10.2462 3.75 9.83965 3.75 9.375C3.75 8.89583 3.91245 8.48201 4.23734 8.13352L11.2595 1.22917C11.6139 0.909722 12.0274 0.75 12.5 0.75C12.9873 0.75 13.4082 0.909722 13.7627 1.22917Z" fill="white" fill-opacity="0.65"/>
</svg>
