<svg xmlns="http://www.w3.org/2000/svg" width="24" height="24" fill="none"><g clip-path="url(#a)"><path fill="#fff" d="M0 12C0 5.373 5.373 0 12 0s12 5.373 12 12-5.373 12-12 12S0 18.627 0 12Z"/><mask id="b" width="32" height="24" x="-4" y="0" maskUnits="userSpaceOnUse" style="mask-type:alpha"><path fill="#fff" d="M-4 0h32v24H-4z"/></mask><g mask="url(#b)"><path fill="#C51918" fill-rule="evenodd" d="M-4 0v24h32V0H-4Z" clip-rule="evenodd"/><mask id="c" width="32" height="24" x="-4" y="0" maskUnits="userSpaceOnUse" style="mask-type:alpha"><path fill="#fff" fill-rule="evenodd" d="M-4 0v24h32V0H-4Z" clip-rule="evenodd"/></mask><g mask="url(#c)"><path fill="#F7FCFF" fill-rule="evenodd" d="M6 0h4v10h18v4H10v10H6V14H-4v-4H6V0Z" clip-rule="evenodd"/></g></g></g><defs><clipPath id="a"><path fill="#fff" d="M0 12C0 5.373 5.373 0 12 0s12 5.373 12 12-5.373 12-12 12S0 18.627 0 12Z"/></clipPath></defs></svg>